<?xml version="1.0" encoding="UTF-8"?>
<svg id="Layer_2" data-name="Layer 2" xmlns="http://www.w3.org/2000/svg" viewBox="0 0 397.89 474.47">
  <defs>
    <style>
      .cls-1 {
        fill: #ef3f5c;
      }
    </style>
  </defs>
  <g id="path">
    <path class="cls-1" d="m0,229.32v68.2c0,56.01,2.21,59.61,52.11,85.04l159.06,81.05c28.44,14.49,27.46,14.49,55.9,0l130.79-66.64-206.01-104.97c-33.41-17.02-33.18-16.65-33.18-54.14v-124.53S31.25,178.31,31.25,178.31C1.32,193.57,0,195.73,0,229.32Z"/>
    <path class="cls-1" d="m397.89,197.94v-62.46c0-62.51.38-61.89-55.32-90.25L253.73,0,94.99,80.88l111.03,56.54c33.42,17.02,33.19,16.64,33.19,54.15v124.52s125.51-64,125.51-64c33.39-17.03,33.16-16.65,33.16-54.14Z"/>
  </g>
</svg>