<?xml version="1.0" encoding="UTF-8"?>
<svg id="a" data-name="Layer 4" xmlns="http://www.w3.org/2000/svg" viewBox="0 0 1000 1000">
  <path d="m90.19,480.23v140.48c0,115.38,4.54,122.79,107.34,175.17l327.65,166.95c58.58,29.85,56.57,29.85,115.16,0l269.41-137.27-424.36-216.22c-68.82-35.06-68.35-34.29-68.34-111.53V241.29s-262.48,133.85-262.48,133.85c-61.65,31.44-64.37,35.88-64.37,105.08Z" style="fill: #ef3f5c;"/>
  <path d="m909.81,415.59v-128.65c0-128.76.79-127.48-113.96-185.9l-125.44-63.87c-58.57-29.82-56.56-29.82-115.13.02l-269.42,137.28,228.72,116.46c68.85,35.06,68.37,34.29,68.37,111.54v256.49s258.54-131.84,258.54-131.84c68.79-35.08,68.31-34.3,68.31-111.51Z" style="fill: #ef3f5c;"/>
</svg>